<svg width="20" height="21" viewBox="0 0 20 21" fill="none" xmlns="http://www.w3.org/2000/svg">
<path fill-rule="evenodd" clip-rule="evenodd" d="M6.6666 11.6812C6.6666 9.84023 8.15898 8.34785 9.99993 8.34785C11.8409 8.34785 13.3333 9.84023 13.3333 11.6812C13.3333 13.5221 11.8409 15.0145 9.99993 15.0145C8.15898 15.0145 6.6666 13.5221 6.6666 11.6812ZM9.99993 10.0145C9.07946 10.0145 8.33327 10.7607 8.33327 11.6812C8.33327 12.6017 9.07946 13.3478 9.99993 13.3478C10.9204 13.3478 11.6666 12.6017 11.6666 11.6812C11.6666 10.7607 10.9204 10.0145 9.99993 10.0145Z" fill="white"/>
<path fill-rule="evenodd" clip-rule="evenodd" d="M9.99993 1.00412L19.5079 9.08591L18.4285 10.3558L17.4999 9.56652V18.3478H2.49993V9.56652L1.57136 10.3558L0.491943 9.08591L9.99993 1.00412ZM4.1666 8.14985V16.6812H15.8333V8.14985L9.99993 3.19152L4.1666 8.14985Z" fill="white"/>
</svg>
