<svg width="294" height="55" viewBox="0 0 294 55" fill="none" xmlns="http://www.w3.org/2000/svg">
<path fill-rule="evenodd" clip-rule="evenodd" d="M27.5 0C35.0936 0 41.9686 3.02388 46.945 7.91248C51.9214 12.8014 55 19.5551 55 27.0147C55 34.474 51.9218 41.228 46.945 46.1166C41.9686 51.0055 35.0936 54.0291 27.5 54.0291C19.9064 54.0291 13.0314 51.0048 8.05498 46.1166C3.07856 41.228 0 34.474 0 27.0147C0 19.5551 3.07856 12.8014 8.05498 7.91248C13.0314 3.02388 19.9064 0 27.5 0ZM34.2811 22.5082C34.0788 22.5082 33.8947 22.5893 33.7626 22.7187C33.6306 22.8485 33.5483 23.0293 33.5483 23.2284C33.5483 23.4275 33.6306 23.608 33.7626 23.7378C33.8947 23.8675 34.0788 23.9487 34.2811 23.9487C34.4838 23.9487 34.6679 23.8675 34.8 23.7378C34.9321 23.608 35.0143 23.4275 35.0143 23.2284C35.0143 23.0293 34.9321 22.8485 34.8 22.7187C34.6679 22.5893 34.4838 22.5082 34.2811 22.5082ZM23.105 31.9977C23.7698 31.9977 24.3716 32.2629 24.8079 32.6911C25.2441 33.1193 25.5137 33.7112 25.5137 34.3639C25.5137 35.0169 25.2441 35.6084 24.8079 36.0366C24.6634 36.1789 24.5004 36.3029 24.3232 36.4055C24.3248 39.8357 24.3246 43.2661 24.3244 46.6964L24.3243 50.1366C24.0938 50.0928 22.9433 49.8 21.8487 49.5214C20.7803 49.2495 19.7651 48.9911 19.7106 48.9911C19.0451 48.7612 18.3968 48.5042 17.7666 48.224C17.1262 47.9388 16.5022 47.6282 15.8986 47.2947C15.3004 46.9648 14.7153 46.607 14.1455 46.2249C13.5688 45.8389 13.0183 45.4339 12.4965 45.015C11.9799 44.6 11.4716 44.1532 10.9745 43.6782C10.4866 43.2114 10.0191 42.7228 9.57479 42.2166C9.13198 41.7127 8.70955 41.1858 8.30894 40.64C7.90616 40.0903 7.53103 39.5298 7.18755 38.9622C6.8448 38.3957 6.51988 37.8009 6.21643 37.1801C5.92025 36.5749 5.65027 35.9555 5.40904 35.3236C5.16562 34.6891 4.9484 34.0357 4.76065 33.367C4.57763 32.7143 4.42081 32.0427 4.29383 31.3564C4.16721 30.6716 4.07006 29.9721 4.0053 29.2615C3.93944 28.5384 3.9056 27.8296 3.9056 27.1391C3.9056 20.7393 6.54681 14.9446 10.8166 10.7501C15.0868 6.55531 20.9852 3.96107 27.5 3.96107C34.0148 3.96107 39.9139 6.55531 44.1834 10.7501C48.4532 14.9446 51.0944 20.7393 51.0944 27.1391C51.0944 27.8296 51.0606 28.5384 50.9947 29.2615C50.9299 29.9721 50.8328 30.6716 50.7062 31.3564C50.5792 32.0427 50.4224 32.7143 50.2393 33.367C50.0512 34.0357 49.8347 34.6891 49.5921 35.3239C49.3497 35.9555 49.0798 36.5749 48.7836 37.1801C48.4801 37.8009 48.1552 38.3957 47.8125 38.9622C47.469 39.5298 47.0935 40.0903 46.6911 40.64C46.2905 41.1858 45.868 41.7127 45.4252 42.2166C44.9809 42.7228 44.5134 43.2114 44.0255 43.6782C43.5285 44.1532 43.0201 44.6 42.5035 45.015C41.9817 45.4339 41.4312 45.8389 40.8545 46.2249C40.2843 46.607 39.6993 46.9648 39.1014 47.2947C38.4978 47.6282 37.8738 47.9388 37.2334 48.224C36.6032 48.5042 35.9549 48.7612 35.2894 48.9911C35.2351 48.9911 34.2213 49.2491 33.1537 49.5208C32.0583 49.7996 30.906 50.0928 30.6753 50.1366L30.6779 36.4059C30.5003 36.3033 30.337 36.1793 30.1921 36.0366C29.7559 35.6084 29.4863 35.0169 29.4863 34.3639C29.4863 33.7112 29.7559 33.1193 30.1921 32.6911C30.628 32.2629 31.2302 31.9977 31.895 31.9977C32.1198 31.9977 32.3378 32.0284 32.5441 32.0849L34.6712 30.1883C34.5587 29.9153 34.4973 29.6172 34.4973 29.3051C34.4973 28.7064 34.7239 28.1592 35.0976 27.7421L34.2855 25.5946H34.2811C33.7725 25.5946 33.3005 25.4395 32.9116 25.1746L29.8894 27.8661C29.9022 27.9651 29.9087 28.0663 29.9087 28.1689C29.9087 28.8215 29.6387 29.4131 29.2028 29.8416C28.9601 30.08 28.6658 30.2681 28.338 30.3874V52.3695C35.1362 52.1565 41.2718 49.3631 45.7611 44.9531C50.434 40.3626 53.3245 34.0204 53.3245 27.0147C53.3245 20.009 50.434 13.6668 45.7611 9.07592C41.0881 4.48578 34.6315 1.64597 27.5 1.64597C20.3685 1.64597 13.9123 4.48578 9.23895 9.07592C4.56635 13.6668 1.67554 20.009 1.67554 27.0147C1.67554 34.0204 4.56635 40.3626 9.23895 44.9531C13.7285 49.3631 19.8638 52.1565 26.662 52.3695V30.3874C26.3342 30.2681 26.0399 30.08 25.7972 29.8416C25.3613 29.4131 25.0913 28.8215 25.0913 28.1689C25.0913 28.0663 25.0978 27.9651 25.1106 27.8661L22.0884 25.1746C21.6995 25.4395 21.2272 25.5946 20.7189 25.5946H20.7145L19.9024 27.7421C20.2761 28.1592 20.5027 28.7064 20.5027 29.3051C20.5027 29.6172 20.4413 29.9153 20.3288 30.1883L22.4555 32.0849C22.6622 32.0284 22.8802 31.9977 23.105 31.9977ZM22.6531 36.6886C22.2976 36.6221 21.9698 36.4791 21.6882 36.2772L19.0455 38.0057C19.0877 38.1816 19.1103 38.3642 19.1103 38.5526C19.1103 39.2053 18.8403 39.7968 18.4044 40.2254C17.9685 40.6536 17.366 40.9185 16.7016 40.9185C16.0368 40.9185 15.4346 40.6536 14.9984 40.2254C14.5625 39.7968 14.2929 39.2053 14.2929 38.5526C14.2929 37.8996 14.5625 37.308 14.9984 36.8798C15.4346 36.4513 16.0368 36.1864 16.7016 36.1864C17.231 36.1864 17.7207 36.3548 18.1184 36.6393L20.7611 34.9107C20.7185 34.7352 20.6963 34.5522 20.6963 34.3639C20.6963 33.8903 20.8382 33.4492 21.0827 33.0789L19.2049 31.4047C18.8723 31.5748 18.4946 31.671 18.094 31.671C17.6312 31.671 17.199 31.5427 16.8318 31.32L14.5945 32.5814C14.6163 32.7086 14.6276 32.8394 14.6276 32.9727C14.6276 33.6258 14.3576 34.2177 13.9217 34.6459C13.4855 35.0741 12.8833 35.3393 12.2189 35.3393C11.5541 35.3393 10.952 35.0741 10.5157 34.6459C10.0798 34.2177 9.80984 33.6258 9.80984 32.9727C9.80984 32.3197 10.0798 31.7285 10.5157 31.3C10.952 30.8718 11.5541 30.6065 12.2189 30.6065C12.8051 30.6065 13.3428 30.8128 13.7609 31.1559L15.7941 30.0093C15.7235 29.7869 15.6853 29.5503 15.6853 29.3051C15.6853 28.9927 15.7472 28.6943 15.8593 28.4212L12.7989 25.6926C12.4663 25.8627 12.0887 25.9589 11.688 25.9589C11.0233 25.9589 10.4211 25.694 9.98522 25.2658C9.54932 24.8372 9.27934 24.2457 9.27934 23.5927C9.27934 22.94 9.54932 22.3481 9.98522 21.9199C10.4211 21.4917 11.0233 21.2265 11.688 21.2265C12.3524 21.2265 12.955 21.4917 13.3909 21.9199C13.8271 22.3481 14.0968 22.94 14.0968 23.5927C14.0968 23.905 14.0349 24.2035 13.9228 24.4762L16.9832 27.2052C17.3158 27.0351 17.6934 26.9389 18.094 26.9389C18.2039 26.9389 18.3116 26.9461 18.4175 26.96L19.1496 25.0235C19.1034 24.9841 19.059 24.9434 19.0157 24.9012C18.5798 24.473 18.3098 23.8811 18.3098 23.2284C18.3098 22.8117 18.4201 22.4203 18.6129 22.08L16.0052 19.7581C15.6675 19.9347 15.2825 20.0351 14.8739 20.0351C14.2092 20.0351 13.607 19.7699 13.1707 19.3417C12.7349 18.9135 12.4652 18.322 12.4652 17.6689C12.4652 17.0159 12.7349 16.4244 13.1707 15.9962C13.607 15.5679 14.2092 15.3027 14.8739 15.3027C15.5383 15.3027 16.1409 15.5679 16.5768 15.9962C17.0127 16.4244 17.2826 17.0159 17.2826 17.6689C17.2826 17.9749 17.2233 18.2669 17.1156 18.5357L19.8904 21.0063C20.1487 20.913 20.4278 20.8622 20.7189 20.8622C21.3836 20.8622 21.9854 21.1274 22.4217 21.5556C22.8576 21.9839 23.1276 22.5754 23.1276 23.2284C23.1276 23.4329 23.101 23.6316 23.0512 23.8207L25.9245 26.3792C26.1403 26.1958 26.3899 26.0493 26.662 25.9496V21.7097C26.3342 21.59 26.0399 21.4023 25.7972 21.1635C25.3613 20.7353 25.0913 20.1438 25.0913 19.4908C25.0913 19.2706 25.1219 19.0576 25.1793 18.8549L21.4338 15.1426C21.13 15.2788 20.792 15.3546 20.4365 15.3546C19.7721 15.3546 19.17 15.0897 18.7337 14.6611C18.2978 14.2329 18.0278 13.6414 18.0278 12.9884C18.0278 12.3357 18.2978 11.7438 18.7337 11.3156C19.17 10.8874 19.7721 10.6222 20.4365 10.6222C21.1013 10.6222 21.7035 10.8874 22.1397 11.3156C22.5756 11.7438 22.8452 12.3357 22.8452 12.9884C22.8452 13.3454 22.7648 13.6839 22.6204 13.9877L26.1774 17.5131C26.328 17.4159 26.4907 17.3344 26.662 17.2718V12.8382C26.3342 12.7185 26.0399 12.5305 25.7972 12.2921C25.3613 11.8635 25.0913 11.272 25.0913 10.619C25.0913 9.96628 25.3613 9.37437 25.7972 8.94617C26.2331 8.51797 26.8352 8.25275 27.5 8.25275C28.1648 8.25275 28.7669 8.51797 29.2028 8.94617C29.6387 9.37437 29.9087 9.96628 29.9087 10.619C29.9087 11.272 29.6387 11.8635 29.2028 12.2921C28.9601 12.5305 28.6658 12.7185 28.338 12.8382V17.2718C28.5093 17.3344 28.672 17.4159 28.8226 17.5131L32.3378 14.0296C32.1806 13.715 32.0922 13.3619 32.0922 12.9884C32.0922 12.3357 32.3622 11.7438 32.7981 11.3156C33.234 10.8874 33.8361 10.6222 34.5009 10.6222C35.1656 10.6222 35.7678 10.8874 36.2041 11.3156C36.64 11.7438 36.9096 12.3357 36.9096 12.9884C36.9096 13.6414 36.64 14.2329 36.2041 14.6611C35.7678 15.0897 35.1656 15.3546 34.5009 15.3546C34.1621 15.3546 33.8398 15.2856 33.5472 15.1615L29.8203 18.8549C29.8778 19.0572 29.9087 19.2706 29.9087 19.4908C29.9087 20.1438 29.6387 20.7353 29.2028 21.1635C28.9601 21.4023 28.6658 21.59 28.338 21.7097V25.9496C28.6101 26.0493 28.8597 26.1958 29.0755 26.3792L31.9488 23.8207C31.899 23.6313 31.8724 23.4329 31.8724 23.2284C31.8724 22.5754 32.1424 21.9839 32.5783 21.5556C33.0146 21.1274 33.6164 20.8622 34.2811 20.8622C34.5722 20.8622 34.8513 20.913 35.1096 21.0063L37.7868 18.6222C37.6555 18.3305 37.5831 18.0081 37.5831 17.6689C37.5831 17.0159 37.8527 16.4244 38.2886 15.9962C38.7249 15.5679 39.327 15.3027 39.9914 15.3027C40.6562 15.3027 41.2584 15.5679 41.6946 15.9962C42.1305 16.4244 42.4001 17.0159 42.4001 17.6689C42.4001 18.322 42.1305 18.9135 41.6946 19.3417C41.2584 19.7699 40.6562 20.0351 39.9914 20.0351C39.6174 20.0351 39.2626 19.9511 38.9464 19.801L36.3875 22.08C36.5799 22.4199 36.6898 22.8117 36.6898 23.2284C36.6898 23.8811 36.4202 24.473 35.984 24.9012C35.941 24.9434 35.8966 24.9841 35.8504 25.0235L36.5829 26.96C36.6884 26.9461 36.7961 26.9389 36.906 26.9389C37.3066 26.9389 37.6842 27.0351 38.0164 27.2052L41.0772 24.4762C40.9651 24.2035 40.9032 23.905 40.9032 23.5927C40.9032 22.94 41.1729 22.3481 41.6091 21.9199C42.045 21.4917 42.6472 21.2265 43.312 21.2265C43.9767 21.2265 44.5789 21.4917 45.0148 21.9199C45.4507 22.3481 45.7207 22.94 45.7207 23.5927C45.7207 24.2457 45.4507 24.8372 45.0148 25.2658C44.5789 25.694 43.9767 25.9589 43.312 25.9589C42.9114 25.9589 42.5337 25.8627 42.2011 25.6926L39.1407 28.4212C39.2528 28.6943 39.3147 28.9927 39.3147 29.3051C39.3147 29.5503 39.2765 29.7869 39.2059 30.0093L41.2391 31.1559C41.6572 30.8128 42.1949 30.6065 42.7811 30.6065C43.4459 30.6065 44.048 30.8718 44.4843 31.3C44.9202 31.7285 45.1898 32.3197 45.1898 32.9727C45.1898 33.6258 44.9202 34.2177 44.4843 34.6459C44.048 35.0741 43.4459 35.3393 42.7811 35.3393C42.1167 35.3393 41.5145 35.0741 41.0783 34.6459C40.6424 34.2177 40.3724 33.6258 40.3724 32.9727C40.3724 32.8394 40.3837 32.7086 40.4055 32.5814L38.1682 31.32C37.801 31.5427 37.3688 31.671 36.906 31.671C36.5054 31.671 36.1277 31.5748 35.7951 31.4047L33.9173 33.0789C34.1618 33.4492 34.3037 33.8903 34.3037 34.3639C34.3037 34.5522 34.2815 34.7352 34.2389 34.9107L37.0268 36.7343C37.4445 36.3923 37.9819 36.1864 38.5677 36.1864C39.2324 36.1864 39.8343 36.4513 40.2705 36.8798C40.7064 37.308 40.9764 37.8996 40.9764 38.5526C40.9764 39.2053 40.7064 39.7968 40.2705 40.2254C39.8343 40.6536 39.2324 40.9185 38.5677 40.9185C37.9029 40.9185 37.3007 40.6536 36.8648 40.2254C36.4286 39.7968 36.159 39.2053 36.159 38.5526C36.159 38.4193 36.1703 38.2885 36.1917 38.1612L33.3118 36.2772C33.0302 36.4791 32.7024 36.6221 32.3469 36.6886L32.3447 48.1296C32.6685 48.0539 32.9905 47.9709 33.3118 47.8855C33.7925 47.7454 34.2593 47.6035 34.7341 47.4441C35.3487 47.2289 35.9538 46.9901 36.5461 46.726C37.1385 46.4622 37.7188 46.1731 38.2831 45.8614C38.8464 45.5504 39.3904 45.2184 39.9121 44.8688C40.4321 44.5206 40.9433 44.1436 41.4436 43.7422C41.945 43.3397 42.418 42.9251 42.8608 42.5015C43.3149 42.0672 43.75 41.6129 44.1623 41.1429C44.5767 40.6711 44.9689 40.1832 45.3361 39.6821C45.6985 39.1878 46.0452 38.6684 46.3731 38.1265C46.7049 37.5786 47.0076 37.0264 47.2783 36.4727C47.5527 35.9119 47.803 35.3364 48.0275 34.7485C48.2556 34.149 48.4572 33.5428 48.6293 32.9295C48.8018 32.3147 48.9477 31.6928 49.0634 31.0673C49.182 30.4253 49.2726 29.7755 49.3323 29.12C49.3894 28.4938 49.4185 27.8325 49.4185 27.1391C49.4185 21.1932 46.9654 15.8099 42.999 11.9136C39.033 8.0172 33.5531 5.60705 27.5 5.60705C21.4473 5.60705 15.9673 8.0172 12.001 11.9136C8.0346 15.8099 5.5815 21.1932 5.5815 27.1391C5.5815 27.8325 5.61061 28.4938 5.66773 29.12C5.72741 29.7755 5.81801 30.4253 5.93662 31.0673C6.05233 31.6928 6.19787 32.3147 6.3707 32.9295C6.5428 33.5428 6.74437 34.149 6.97215 34.7452C7.19701 35.3364 7.44734 35.9119 7.72168 36.4727C7.99239 37.0264 8.29512 37.5786 8.62695 38.1265C8.95478 38.6684 9.30153 39.1878 9.66393 39.6821C10.0311 40.1832 10.4233 40.6711 10.8374 41.1429C11.25 41.6129 11.6851 42.0672 12.1392 42.5015C12.582 42.9251 13.055 43.3397 13.5564 43.7422C14.0567 44.1436 14.5679 44.5206 15.0879 44.8688C15.6096 45.2184 16.1532 45.5504 16.7169 45.8614C17.2812 46.1731 17.8612 46.4622 18.4539 46.726C19.0462 46.9901 19.6513 47.2289 20.2666 47.4419C20.8168 47.6346 21.3607 47.7908 21.9218 47.9488C21.9816 47.9639 22.0514 47.9832 22.1252 48.0035C22.3073 48.0537 22.5139 48.1106 22.6553 48.1296L22.6531 36.6886ZM23.6235 33.8545C23.4914 33.7248 23.3077 33.6436 23.105 33.6436C22.9024 33.6436 22.7186 33.7248 22.5862 33.8545C22.4541 33.9843 22.3719 34.1648 22.3719 34.3639C22.3719 34.563 22.4541 34.7438 22.5862 34.8736C22.7186 35.0029 22.9024 35.0841 23.105 35.0841C23.3077 35.0841 23.4914 35.0029 23.6235 34.8736C23.7556 34.7438 23.8378 34.563 23.8378 34.3639C23.8378 34.1648 23.7556 33.9843 23.6235 33.8545ZM18.6129 28.7954C18.4808 28.6657 18.2967 28.5849 18.094 28.5849C17.8914 28.5849 17.7076 28.6657 17.5756 28.7954C17.4435 28.9252 17.3609 29.1057 17.3609 29.3051C17.3609 29.5039 17.4435 29.6847 17.5756 29.8145C17.7076 29.9442 17.8914 30.025 18.094 30.025C18.2967 30.025 18.4808 29.9442 18.6129 29.8145C18.745 29.6847 18.8272 29.5039 18.8272 29.3051C18.8272 29.1057 18.745 28.9252 18.6129 28.7954ZM12.2065 23.0833C12.0745 22.9536 11.8907 22.8724 11.688 22.8724C11.4854 22.8724 11.3013 22.9536 11.1692 23.0833C11.0375 23.2127 10.9549 23.3936 10.9549 23.5927C10.9549 23.7917 11.0375 23.9726 11.1692 24.102C11.3013 24.2321 11.4854 24.3129 11.688 24.3129C11.8907 24.3129 12.0745 24.2321 12.2065 24.102C12.3386 23.9726 12.4212 23.7917 12.4212 23.5927C12.4212 23.3936 12.3386 23.2127 12.2065 23.0833ZM31.895 33.6436C31.6923 33.6436 31.5086 33.7248 31.3765 33.8545C31.244 33.9843 31.1622 34.1648 31.1622 34.3639C31.1622 34.563 31.244 34.7438 31.3765 34.8736C31.5086 35.0029 31.6923 35.0841 31.895 35.0841C32.0976 35.0841 32.2814 35.0029 32.4138 34.8736C32.5459 34.7438 32.6281 34.563 32.6281 34.3639C32.6281 34.1648 32.5459 33.9843 32.4138 33.8545C32.2814 33.7248 32.0976 33.6436 31.895 33.6436ZM36.906 28.5849C36.7033 28.5849 36.5192 28.6657 36.3871 28.7954C36.255 28.9252 36.1728 29.1057 36.1728 29.3051C36.1728 29.5039 36.255 29.6847 36.3871 29.8145C36.5192 29.9442 36.7033 30.025 36.906 30.025C37.1086 30.025 37.2924 29.9442 37.4244 29.8145C37.5565 29.6847 37.6388 29.5039 37.6388 29.3051C37.6388 29.1057 37.5565 28.9252 37.4244 28.7954C37.2924 28.6657 37.1086 28.5849 36.906 28.5849ZM43.312 22.8724C43.1093 22.8724 42.9255 22.9536 42.7935 23.0833C42.6614 23.2127 42.5788 23.3936 42.5788 23.5927C42.5788 23.7917 42.6614 23.9726 42.7935 24.102C42.9255 24.2321 43.1093 24.3129 43.312 24.3129C43.5146 24.3129 43.6987 24.2321 43.8308 24.102C43.9625 23.9726 44.0451 23.7917 44.0451 23.5927C44.0451 23.3936 43.9625 23.2127 43.8308 23.0833C43.6987 22.9536 43.5146 22.8724 43.312 22.8724ZM38.5677 37.8327C38.365 37.8327 38.1813 37.9135 38.0488 38.0433C37.9167 38.1727 37.8345 38.3535 37.8345 38.5526C37.8345 38.7517 37.9167 38.9322 38.0488 39.062C38.1813 39.1917 38.365 39.2725 38.5677 39.2725C38.7703 39.2725 38.9541 39.1917 39.0862 39.062C39.2183 38.9322 39.3005 38.7517 39.3005 38.5526C39.3005 38.3535 39.2183 38.1727 39.0862 38.0433C38.9541 37.9135 38.7703 37.8327 38.5677 37.8327ZM42.7811 32.2529C42.5788 32.2529 42.3947 32.3337 42.2626 32.4634C42.1305 32.5931 42.0483 32.774 42.0483 32.9727C42.0483 33.1722 42.1305 33.3527 42.2626 33.4824C42.3947 33.6122 42.5788 33.693 42.7811 33.693C42.9838 33.693 43.1679 33.6122 43.2999 33.4824C43.432 33.3527 43.5143 33.1722 43.5143 32.9727C43.5143 32.774 43.432 32.5931 43.2999 32.4634C43.1679 32.3337 42.9838 32.2529 42.7811 32.2529ZM21.2374 22.7187C21.1053 22.5893 20.9212 22.5082 20.7189 22.5082C20.5162 22.5082 20.3321 22.5893 20.2 22.7187C20.0679 22.8485 19.9857 23.0293 19.9857 23.2284C19.9857 23.4275 20.0679 23.608 20.2 23.7378C20.3321 23.8675 20.5162 23.9487 20.7189 23.9487C20.9212 23.9487 21.1053 23.8675 21.2374 23.7378C21.3694 23.608 21.4517 23.4275 21.4517 23.2284C21.4517 23.0293 21.3694 22.8485 21.2374 22.7187ZM17.2201 38.0433C17.088 37.9135 16.9042 37.8327 16.7016 37.8327C16.4989 37.8327 16.3148 37.9135 16.1827 38.0433C16.0506 38.1727 15.9684 38.3535 15.9684 38.5526C15.9684 38.7517 16.0506 38.9322 16.1827 39.062C16.3148 39.1917 16.4989 39.2725 16.7016 39.2725C16.9042 39.2725 17.088 39.1917 17.2201 39.062C17.3521 38.9322 17.4347 38.7517 17.4347 38.5526C17.4347 38.3535 17.3521 38.1727 17.2201 38.0433ZM12.7374 32.4634C12.6053 32.3337 12.4212 32.2529 12.2189 32.2529C12.0162 32.2529 11.8321 32.3337 11.7001 32.4634C11.568 32.5931 11.4857 32.774 11.4857 32.9727C11.4857 33.1722 11.568 33.3527 11.7001 33.4824C11.8321 33.6122 12.0162 33.693 12.2189 33.693C12.4212 33.693 12.6053 33.6122 12.7374 33.4824C12.8695 33.3527 12.9517 33.1722 12.9517 32.9727C12.9517 32.774 12.8695 32.5931 12.7374 32.4634ZM40.5103 17.1592C40.3782 17.0298 40.1941 16.9487 39.9914 16.9487C39.7888 16.9487 39.605 17.0298 39.4729 17.1592C39.3409 17.289 39.2586 17.4698 39.2586 17.6689C39.2586 17.868 39.3409 18.0485 39.4729 18.1783C39.605 18.308 39.7888 18.3892 39.9914 18.3892C40.1941 18.3892 40.3782 18.308 40.5103 18.1783C40.6424 18.0485 40.7246 17.868 40.7246 17.6689C40.7246 17.4698 40.6424 17.289 40.5103 17.1592ZM15.3924 17.1592C15.2604 17.0298 15.0766 16.9487 14.8739 16.9487C14.6713 16.9487 14.4872 17.0298 14.3551 17.1592C14.223 17.289 14.1408 17.4698 14.1408 17.6689C14.1408 17.868 14.223 18.0485 14.3551 18.1783C14.4872 18.308 14.6713 18.3892 14.8739 18.3892C15.0766 18.3892 15.2604 18.308 15.3924 18.1783C15.5245 18.0485 15.6067 17.868 15.6067 17.6689C15.6067 17.4698 15.5245 17.289 15.3924 17.1592ZM28.0185 27.6592C27.8868 27.5294 27.7027 27.4486 27.5 27.4486C27.2973 27.4486 27.1132 27.5294 26.9811 27.6592C26.8494 27.7889 26.7668 27.9698 26.7668 28.1689C26.7668 28.3679 26.8494 28.5484 26.9811 28.6782C27.1132 28.8079 27.2973 28.8887 27.5 28.8887C27.7027 28.8887 27.8868 28.8079 28.0185 28.6782C28.1506 28.5484 28.2332 28.3679 28.2332 28.1689C28.2332 27.9698 28.1506 27.7889 28.0185 27.6592ZM28.0185 18.9814C27.8868 18.8517 27.7027 18.7705 27.5 18.7705C27.2973 18.7705 27.1132 18.8517 26.9811 18.9814C26.8494 19.1112 26.7668 19.2917 26.7668 19.4908C26.7668 19.6899 26.8494 19.8707 26.9811 20.0005C27.1132 20.1299 27.2973 20.211 27.5 20.211C27.7027 20.211 27.8868 20.1299 28.0185 20.0005C28.1506 19.8707 28.2332 19.6899 28.2332 19.4908C28.2332 19.2917 28.1506 19.1112 28.0185 18.9814ZM20.9554 12.479C20.8233 12.3493 20.6392 12.2681 20.4365 12.2681C20.2339 12.2681 20.0501 12.3493 19.918 12.479C19.786 12.6088 19.7037 12.7893 19.7037 12.9884C19.7037 13.1875 19.786 13.3683 19.918 13.4981C20.0501 13.6275 20.2339 13.7086 20.4365 13.7086C20.6392 13.7086 20.8233 13.6275 20.9554 13.4981C21.0875 13.3683 21.1697 13.1875 21.1697 12.9884C21.1697 12.7893 21.0875 12.6088 20.9554 12.479ZM35.0197 12.479C34.8877 12.3493 34.7036 12.2681 34.5009 12.2681C34.2982 12.2681 34.1145 12.3493 33.9824 12.479C33.8503 12.6088 33.7681 12.7893 33.7681 12.9884C33.7681 13.1875 33.8503 13.3683 33.9824 13.4981C34.1145 13.6275 34.2982 13.7086 34.5009 13.7086C34.7036 13.7086 34.8877 13.6275 35.0197 13.4981C35.1518 13.3683 35.2341 13.1875 35.2341 12.9884C35.2341 12.7893 35.1518 12.6088 35.0197 12.479ZM28.0185 10.1096C27.8868 9.97986 27.7027 9.89908 27.5 9.89908C27.2973 9.89908 27.1132 9.97986 26.9811 10.1096C26.8494 10.2394 26.7668 10.4199 26.7668 10.619C26.7668 10.818 26.8494 10.9989 26.9811 11.1286C27.1132 11.2584 27.2973 11.3392 27.5 11.3392C27.7027 11.3392 27.8868 11.2584 28.0185 11.1286C28.1506 10.9989 28.2332 10.818 28.2332 10.619C28.2332 10.4199 28.1506 10.2394 28.0185 10.1096Z" fill="#FFA500"/>
<path d="M69.76 42.0145L65.02 36.2545L69.42 11.2945H77.1L75.74 18.9745H83.42L82.74 22.8145H75.06L72.7 36.2545L74.28 38.1745H80.04L79.36 42.0145H69.76ZM81.9297 42.0145L84.9697 24.7345L91.7497 18.9745H112.87L111.17 28.5745L104.41 34.3345H94.8097L95.4897 30.4945H101.25L103.49 28.5745L104.51 22.8145H94.9097L92.6497 24.7345L90.2897 38.1745H109.49L108.81 42.0145H81.9297ZM111.383 42.0145L114.423 24.7345L121.203 18.9745H142.323L140.963 26.6545H133.283L133.963 22.8145H124.363L122.103 24.7345L119.743 38.1745H138.943L138.263 42.0145H111.383ZM140.836 42.0145L144.896 18.9745H152.576L151.216 26.6545H162.736L164.096 18.9745H171.776L167.716 42.0145H160.036L162.076 30.4945H150.556L148.516 42.0145H140.836Z" fill="black"/>
<path d="M170.289 42.0145L173.329 24.7345L180.109 18.9745H201.229L197.169 42.0145H189.489L192.869 22.8145H183.269L181.009 24.7345L178.649 38.1745H186.329L185.649 42.0145H170.289ZM198.382 49.6945L199.062 45.8545H216.342L218.602 43.9345L222.322 22.8145H212.722L210.462 24.7345L208.102 38.1745H215.782L215.102 42.0145H199.742L202.782 24.7345L209.562 18.9745H230.682L226.282 43.9345L219.502 49.6945H198.382ZM229.195 42.0145L232.235 24.7345L239.015 18.9745H260.135L258.435 28.5745L251.675 34.3345H253.595L254.835 38.1745H256.755L256.075 42.0145H248.395L245.915 34.3345H242.075L242.755 30.4945H248.515L250.755 28.5745L251.775 22.8145H242.175L239.915 24.7345L236.875 42.0145H229.195ZM276.608 38.1745L278.868 36.2545L281.228 22.8145H271.628L269.368 24.7345L267.008 38.1745H276.608ZM258.648 42.0145L261.688 24.7345L268.468 18.9745H289.588L286.548 36.2545L279.768 42.0145H258.648Z" fill="#FFA500"/>
</svg>
