<svg width="20" height="18" viewBox="0 0 20 18" fill="none" xmlns="http://www.w3.org/2000/svg">
<path fill-rule="evenodd" clip-rule="evenodd" d="M9.50793 7.34375C7.66699 7.34375 6.17468 8.83612 6.17468 10.6771C6.17468 12.518 7.66699 14.0104 9.50793 14.0104C11.349 14.0104 12.8413 12.518 12.8413 10.6771C12.8413 8.83612 11.349 7.34375 9.50793 7.34375ZM7.84131 10.6771C7.84131 9.75659 8.58752 9.01038 9.50793 9.01038C10.4285 9.01038 11.1747 9.75659 11.1747 10.6771C11.1747 11.5975 10.4285 12.3438 9.50793 12.3438C8.58752 12.3438 7.84131 11.5975 7.84131 10.6771Z" fill="#FFA500"/>
<path fill-rule="evenodd" clip-rule="evenodd" d="M19.016 8.08179L9.50793 0L0 8.08179L1.07947 9.35168L2.00793 8.56238V17.3437H17.0079V8.56238L17.9365 9.35168L19.016 8.08179ZM3.67468 15.677V7.14575L9.50793 2.18738L15.3413 7.14575V15.677H3.67468Z" fill="#FFA500"/>
</svg>
