<svg width="225" height="39" viewBox="0 0 225 39" fill="none" xmlns="http://www.w3.org/2000/svg">
<path d="M4.76 31L0.0200001 25.24L4.42 0.28H12.1L10.74 7.96H18.42L17.74 11.8H10.06L7.7 25.24L9.28 27.16H15.04L14.36 31H4.76ZM16.9297 31L19.9697 13.72L26.7497 7.96H47.8697L46.1697 17.56L39.4097 23.32H29.8097L30.4897 19.48H36.2497L38.4897 17.56L39.5097 11.8H29.9097L27.6497 13.72L25.2897 27.16H44.4897L43.8097 31H16.9297ZM46.3828 31L49.4228 13.72L56.2028 7.96H77.3228L75.9628 15.64H68.2828L68.9628 11.8H59.3628L57.1028 13.72L54.7428 27.16H73.9428L73.2628 31H46.3828ZM75.8359 31L79.8959 7.96H87.5759L86.2159 15.64H97.7359L99.0959 7.96H106.776L102.716 31H95.0359L97.0759 19.48H85.5559L83.5159 31H75.8359Z" fill="black"/>
<path d="M105.289 31L108.329 13.72L115.109 7.96H136.229L132.169 31H124.489L127.869 11.8H118.269L116.009 13.72L113.649 27.16H121.329L120.649 31H105.289ZM133.382 38.68L134.062 34.84H151.342L153.602 32.92L157.322 11.8H147.722L145.462 13.72L143.102 27.16H150.782L150.102 31H134.742L137.782 13.72L144.562 7.96H165.682L161.282 32.92L154.502 38.68H133.382ZM164.195 31L167.235 13.72L174.015 7.96H195.135L193.435 17.56L186.675 23.32H188.595L189.835 27.16H191.755L191.075 31H183.395L180.915 23.32H177.075L177.755 19.48H183.515L185.755 17.56L186.775 11.8H177.175L174.915 13.72L171.875 31H164.195ZM211.608 27.16L213.868 25.24L216.228 11.8H206.628L204.368 13.72L202.008 27.16H211.608ZM193.648 31L196.688 13.72L203.468 7.96H224.588L221.548 25.24L214.768 31H193.648Z" fill="#FFA500"/>
</svg>
